<svg xmlns="http://www.w3.org/2000/svg" xmlns:xlink="http://www.w3.org/1999/xlink" version="1.1" x="0px" y="0px" viewBox="0 0 100 100" style="enable-background:new 0 0 100 100;" xml:space="preserve"><path d="M45.4,47c2-2,5.2-2,7.2,0c2,2,2,5.2,0,7.2c-2,2-5.2,2-7.2,0C43.4,52.2,43.4,49,45.4,47z M94.3,50.9c0-4.9-7.7-8.6-18.5-10.9  c1-1.5,1.8-2.9,2.6-4.3c4.5-8.1,5.4-13.8,2.7-16.5c-2.7-2.7-8.4-1.8-16.5,2.7c-1.4,0.8-2.9,1.7-4.3,2.6C58,13.7,54.3,6,49.4,6  s-8.6,7.7-10.9,18.5c-9.3-6-17.4-8.9-20.8-5.4c-2.7,2.7-1.8,8.4,2.7,16.5c0.8,1.4,1.7,2.9,2.6,4.3C12.2,42.3,4.5,46,4.5,50.9  s7.7,8.6,18.5,10.9c-1,1.5-1.8,2.9-2.6,4.3c-4.5,8.1-5.4,13.8-2.7,16.5c1,1,2.5,1.5,4.2,1.5c4.2,0,10.1-2.7,16.6-6.9  c2.3,10.8,6,18.5,10.9,18.5s8.6-7.7,10.9-18.5c1.5,1,2.9,1.8,4.4,2.6c5,2.8,9.2,4.2,12.2,4.2c1.8,0,3.3-0.5,4.3-1.5  c2.7-2.7,1.8-8.4-2.7-16.5c-0.8-1.4-1.7-2.9-2.6-4.3C86.6,59.5,94.3,55.8,94.3,50.9L94.3,50.9z M65.6,23.6c4.7-2.6,8.6-4,11.3-4  c1.3,0,2.2,0.3,2.9,0.9c1.9,1.9,0.8,7.2-3,14.1c-0.9,1.6-1.9,3.2-3,4.9c-3.6-0.7-7.4-1.2-11.4-1.5c-0.4-4-0.9-7.9-1.5-11.4  C62.4,25.5,64,24.5,65.6,23.6L65.6,23.6z M60.8,50.9c0,1.6,0,3.1-0.1,4.7c-1.1,1.1-2.1,2.3-3.3,3.4c-1.1,1.1-2.2,2.2-3.4,3.3  c-1.6,0.1-3.1,0.1-4.7,0.1s-3.1,0-4.7-0.1c-1.1-1.1-2.3-2.1-3.4-3.3c-1.1-1.1-2.2-2.2-3.3-3.4c-0.1-1.6-0.1-3.2-0.1-4.7  s0-3.1,0.1-4.7c1.1-1.1,2.1-2.3,3.3-3.4c1.1-1.1,2.2-2.2,3.4-3.3c1.6-0.1,3.2-0.1,4.7-0.1s3.1,0,4.7,0.1c1.2,1.1,2.3,2.2,3.4,3.3  c1.1,1.1,2.2,2.2,3.3,3.4C60.8,47.8,60.8,49.3,60.8,50.9L60.8,50.9z M58.9,41.4c-0.6-0.6-1.2-1.2-1.8-1.7c1.1,0.1,2.2,0.1,3.3,0.2  c0.1,1.1,0.2,2.2,0.2,3.3C60,42.6,59.5,42,58.9,41.4L58.9,41.4z M54.9,37.6c-1.3-1.2-2.7-2.4-4-3.6c2.7-2.3,5.4-4.3,8-6.2  c0.6,3.2,1,6.6,1.3,10C58.5,37.8,56.7,37.7,54.9,37.6L54.9,37.6z M51.9,37.5c-0.8,0-1.6,0-2.5,0c-0.8,0-1.7,0-2.5,0  c0.8-0.7,1.7-1.5,2.5-2.2C50.2,36,51,36.8,51.9,37.5z M43.9,37.6c-1.8,0.1-3.6,0.2-5.3,0.3c0.3-3.4,0.8-6.8,1.3-10  c2.6,1.8,5.3,3.9,7.9,6.1C46.5,35.2,45.2,36.4,43.9,37.6z M41.7,39.7c-0.6,0.6-1.2,1.1-1.8,1.7s-1.2,1.2-1.7,1.8  c0.1-1.1,0.1-2.2,0.2-3.3C39.5,39.8,40.6,39.7,41.7,39.7z M36.1,45.4c-1.2,1.3-2.4,2.7-3.6,4c-2.3-2.7-4.3-5.4-6.1-8  c3.2-0.6,6.6-1,10-1.3C36.2,41.8,36.1,43.6,36.1,45.4L36.1,45.4z M36,48.4c0,0.8,0,1.7,0,2.5s0,1.7,0,2.5c-0.8-0.8-1.5-1.7-2.2-2.5  C34.5,50.1,35.2,49.2,36,48.4z M36.1,56.4c0.1,1.8,0.2,3.6,0.3,5.3c-3.5-0.3-6.9-0.8-10-1.3c1.8-2.6,3.9-5.3,6.1-8  C33.6,53.8,34.8,55.1,36.1,56.4L36.1,56.4z M38.2,58.6c0.6,0.6,1.1,1.2,1.7,1.8s1.2,1.2,1.8,1.7c-1.1-0.1-2.2-0.1-3.3-0.2  C38.3,60.8,38.2,59.7,38.2,58.6z M43.9,64.2c1.3,1.2,2.6,2.4,4,3.6c-2.7,2.2-5.3,4.3-7.9,6.1c-0.5-3.1-1-6.5-1.3-9.9  C40.3,64.1,42.1,64.2,43.9,64.2L43.9,64.2z M46.9,64.3c0.8,0,1.7,0,2.5,0c0.8,0,1.6,0,2.5,0c-0.8,0.7-1.7,1.5-2.5,2.2  C48.5,65.8,47.7,65,46.9,64.3z M54.9,64.2c1.8-0.1,3.6-0.2,5.3-0.3c-0.3,3.5-0.8,6.9-1.3,10c-2.6-1.8-5.3-3.9-8-6.2  C52.2,66.6,53.6,65.4,54.9,64.2z M57.1,62.1c0.6-0.6,1.2-1.2,1.8-1.7s1.2-1.2,1.7-1.8c-0.1,1.1-0.1,2.2-0.2,3.3  C59.3,62,58.2,62.1,57.1,62.1L57.1,62.1z M62.7,56.4c1.2-1.3,2.4-2.7,3.6-4c2.3,2.7,4.3,5.4,6.1,8c-3.2,0.6-6.6,1-10,1.3  C62.5,60,62.6,58.2,62.7,56.4z M62.8,53.4c0-0.8,0-1.7,0-2.5s0-1.7,0-2.5c0.8,0.8,1.5,1.7,2.2,2.5C64.3,51.7,63.5,52.6,62.8,53.4z   M62.7,45.4c-0.1-1.8-0.2-3.6-0.3-5.3c3.5,0.3,6.9,0.8,10,1.3c-1.8,2.6-3.9,5.3-6.1,8C65.2,48,63.9,46.7,62.7,45.4z M49.4,8  c3.9,0,7.1,7.5,9.1,17.7c-3,2-6,4.4-9.1,7c-3-2.5-6.1-4.9-9.1-6.9C42.3,15.5,45.5,8,49.4,8L49.4,8z M22.1,34.7  c-3.9-6.9-5-12.2-3-14.1c0.7-0.7,1.7-1,3-1c3.7,0,9.6,2.8,16,7.1c-0.7,3.6-1.2,7.4-1.5,11.4c-4,0.4-7.9,0.9-11.4,1.5  C24,37.9,23,36.3,22.1,34.7z M6.5,50.9c0-3.9,7.5-7.1,17.7-9.1c2,3,4.4,6,7,9.1c-2.6,3.1-4.9,6.1-7,9.1C14,58,6.5,54.8,6.5,50.9z   M19.1,81.2c-1.9-1.9-0.8-7.2,3-14.1c0.9-1.6,1.9-3.2,3-4.9c3.6,0.7,7.4,1.2,11.4,1.5c0.4,4,0.9,7.8,1.5,11.4  C29.4,80.9,21.8,84,19.1,81.2L19.1,81.2z M49.4,93.8c-3.9,0-7.1-7.5-9.1-17.8c3-2,6-4.4,9.1-6.9c3.1,2.6,6.2,4.9,9.1,7  C56.5,86.3,53.3,93.8,49.4,93.8L49.4,93.8z M76.7,67.1c3.9,6.9,5,12.2,3,14.1c-1.9,1.9-7.2,0.8-14.1-3c-1.6-0.9-3.2-1.9-4.9-3  c0.7-3.6,1.2-7.4,1.5-11.4c4-0.4,7.9-0.9,11.4-1.5C74.8,63.9,75.8,65.5,76.7,67.1z M74.6,60c-2-3-4.4-6-7-9.1c2.6-3.1,4.9-6.1,7-9.1  c10.2,2,17.7,5.2,17.7,9.1S84.8,58,74.6,60z"></path></svg>